/* XPM */
static char *palapeli[] = {
/* columns rows colors chars-per-pixel */
"32 32 256 2 ",
"   c black",
".  c #213218",
"X  c #3C3E3B",
"o  c #313C34",
"O  c #27521E",
"+  c #355B1E",
"@  c #3A5C1A",
"#  c #2B6518",
"$  c #386918",
"%  c #1A4C39",
"&  c #1F5631",
"*  c #2B4F21",
"=  c #2A5824",
"-  c #3F413E",
";  c #354533",
":  c #24593A",
">  c #305F3E",
",  c #3E5938",
"<  c #385A37",
"1  c #3C6D2E",
"2  c #30613B",
"3  c #3C6D3F",
"4  c #2E743D",
"5  c #357F35",
"6  c #32753D",
"7  c #347A3A",
"8  c #3D7C3C",
"9  c #426607",
"0  c #4C7D09",
"q  c #447D13",
"w  c #4A5D39",
"e  c #4C6B2E",
"r  c #526C2C",
"t  c #487826",
"y  c #4D6235",
"u  c #4A603A",
"i  c #436D3A",
"p  c #516535",
"a  c #536A33",
"s  c #506139",
"d  c #536D38",
"f  c #4F7D31",
"g  c #427C3F",
"h  c #557637",
"j  c #517D37",
"k  c #607F34",
"l  c #0D414B",
"z  c #114547",
"x  c #194C45",
"c  c #124549",
"v  c #1F5144",
"b  c #1C5C4F",
"n  c #1A564D",
"m  c #0C495A",
"M  c #104E56",
"N  c #134C5A",
"B  c #194E5B",
"V  c #155254",
"C  c #1D5556",
"Z  c #1E5952",
"A  c #2B5C40",
"S  c #225D4D",
"D  c #275D53",
"F  c #2B5E54",
"G  c #215558",
"H  c #1E604B",
"J  c #256747",
"K  c #2C6D44",
"L  c #24624B",
"P  c #2A654D",
"I  c #2D6848",
"U  c #286845",
"Y  c #33674F",
"T  c #346B4B",
"R  c #3D6D4C",
"E  c #346B44",
"W  c #2D7041",
"Q  c #347143",
"!  c #3C7345",
"~  c #3D7841",
"^  c #3E714A",
"/  c #2D6151",
"(  c #346650",
")  c #484947",
"_  c #444642",
"`  c #485940",
"'  c #4D524C",
"]  c #4E5E48",
"[  c #435241",
"{  c #505D46",
"}  c #555753",
"|  c #4E6143",
" . c #457B43",
".. c #497C45",
"X. c #407249",
"o. c #427745",
"O. c #627044",
"+. c #6C7673",
"@. c #797B77",
"#. c #3F811E",
"$. c #3A872E",
"%. c #3D8A2C",
"&. c #378233",
"*. c #3B8432",
"=. c #5F8306",
"-. c #45851A",
";. c #468919",
":. c #4C8E1A",
">. c #54841F",
",. c #4B9C1C",
"<. c #499A1A",
"1. c #5E9814",
"2. c #619B14",
"3. c #4FA517",
"4. c #4DA21B",
"5. c #51A617",
"6. c #54A916",
"7. c #5AAD15",
"8. c #53A41C",
"9. c #57A919",
"0. c #5BA91B",
"q. c #59A51E",
"w. c #5EB014",
"e. c #68A10E",
"r. c #69AC0E",
"t. c #6BB50F",
"y. c #73BF0F",
"u. c #7ABE0C",
"i. c #63A013",
"p. c #7AAD1E",
"a. c #63B413",
"s. c #6CB511",
"d. c #6DBA11",
"f. c #6AB01B",
"g. c #72BE10",
"h. c #79B71D",
"j. c #7BB81C",
"k. c #7CBE13",
"l. c #428D2C",
"z. c #50802A",
"x. c #5D8D2E",
"c. c #59852E",
"v. c #439425",
"b. c #4A9725",
"n. c #4C9B23",
"m. c #459229",
"M. c #4A9329",
"N. c #459822",
"B. c #529F21",
"V. c #54942E",
"C. c #58952F",
"Z. c #579A29",
"A. c #5C9C2A",
"S. c #458933",
"D. c #4C8B34",
"F. c #45823B",
"G. c #4B853A",
"H. c #4D8839",
"J. c #458537",
"K. c #538D33",
"L. c #508938",
"P. c #5B8D3B",
"I. c #559232",
"U. c #599234",
"Y. c #5E9830",
"T. c #59943A",
"R. c #649C2E",
"E. c #6C9F2D",
"W. c #689324",
"Q. c #638536",
"!. c #649A32",
"~. c #6A9F30",
"^. c #659034",
"/. c #749F3B",
"(. c #54A021",
"). c #59A023",
"_. c #64A425",
"`. c #6DA724",
"'. c #6EAC22",
"]. c #65A22A",
"[. c #6CA62D",
"{. c #76AE25",
"}. c #74A92A",
"|. c #75B320",
" X c #7EB325",
".X c #6FA539",
"XX c #78A73F",
"oX c #7FAD3D",
"OX c #77A334",
"+X c #76C10F",
"@X c #7BC50E",
"#X c #7FC80D",
"$X c #75C110",
"%X c #7CC310",
"&X c #4D8243",
"*X c #55874A",
"=X c #5D8D48",
"-X c #5A8544",
";X c #6F9C47",
":X c #679545",
">X c #779040",
",X c #799D48",
"<X c #799657",
"1X c #8CAC02",
"2X c #81B009",
"3X c #88B41E",
"4X c #8CB81B",
"5X c #97BF19",
"6X c #88A627",
"7X c #81A129",
"8X c #84BA22",
"9X c #89B428",
"0X c #82B929",
"qX c #86B138",
"wX c #8AB233",
"eX c #97BC38",
"rX c #84CB0C",
"tX c #88CC0C",
"yX c #9DCF0E",
"uX c #90CB0A",
"iX c #8DD20A",
"pX c #9EDC07",
"aX c #93D409",
"sX c #9DD40C",
"dX c #97D908",
"fX c #84C514",
"gX c #89C516",
"hX c #86C318",
"jX c #8CC818",
"kX c #95CD11",
"lX c #99C019",
"zX c #96D110",
"xX c #A1D909",
"cX c #A9D50E",
"vX c #B1D903",
"bX c #A1D214",
"nX c #AAE604",
"mX c #BEF500",
"MX c #8EC129",
"NX c #8BC324",
"BX c #9ECA29",
"VX c #92C030",
"CX c #9FC03A",
"ZX c #A5CC2C",
"AX c #A3C831",
"SX c #A1C435",
"DX c #93AF4E",
"FX c #8CB340",
"GX c #87A552",
"HX c #8E9F63",
"JX c #879B64",
"KX c #8D937A",
"LX c #8A9574",
"PX c #878984",
"IX c #888B84",
"UX c None",
/* pixels */
"UXUXUXUXUXUXUXUXUXUXUXUXUXUXUXUXUXUXUXUXUXUXUXUXUXUXUXUXUXUXUXUX",
"UXUXUXUXUXUXUXUXUXUXUXUXUXKXoXFXUXUXUXUXUXUXUXUXUXUXUXUXUXUXUXUX",
"UXUXUXUXUXUXUXUX7Xd } UXUXDX9.,.q.[..XXXUXUXUXUXUXUXUXUXUXUXUXUX",
"UXUXUXUXUXUX6Xp.3., } UXUXVX4.<.N.v.%.$.%.I.T.T.;XUXUXUXUXUXUXUX",
"UXUXUXUXUX4Xa.3.3., } UXIXNX4.,.N.v.l.$.&.&.7 4 W ~ g &X*XUXUXUX",
"UXUXUXlXk.5.5.5.,.w UXUXIXNX4.,.N.v.l.%.&.&.7 6 W J J H S P P Z ",
"UXlXuX7.7.5.9.9.<.' UXUXIXfX8.B.n.M.l.%.*.&.7 6 W J J P Y Z m l ",
"cXg.6.7.7.7.7.7.;.} UXUXIXfX3.8.n.N.v.%.$.&.7 Q W W Q T S M M l ",
"yX7.7.7.7.7.7.w.-.} UXUXIXfX9.8.n.b.M.l.*.*.8 &.*.~ ! P V V N x ",
"yXw.w.w.w.w.w.w.;.} UXUXKX@X7.8.(.n.M.l.l.D.D.G.&X~ I b b V C n ",
"sXw.a.a.a.w.w.a.:.} UXUXKX+X0.q.(.n.M.Z.A.C.D.G.&.I H b Z C F A ",
"sXa.a.a.a.a.a.@X2.} UXUXLXt.0.q.(.)._.].A.I.S.F.Q J L L Z F F > ",
"sXa.a.s.a.g.#XrX1.} UXUXbX7.O | 9XGXqXA.V.D.S.~ W I I L S ( F 2 ",
"sXd.a.d.d.rXrX#Xr.{ O.sXa.a.t.* } UXIXqXV.D.*.Q Q E U & UX/.F A ",
"xXd.d.d.#X#X@X@X%Xi.tXd.s.@X@X$ } UXUXJXA.S.8 8 ~ Q : UXUXUX-XUX",
"xXd.d.%X@X@X$X$Xy.@X$Xd.@XrX@Xq ' UXUXIX}.J.*.F.8 Q : UXUXUXUXUX",
"pXg.$X+X+X$Xd.$XrXrX+X@XiXtXrX$ } UXUXKX].S.D.G.~ ! E UXUXUXUXUX",
"pX$X$Xg.d.d.d.iXrXt.W.dXaXiX+X+ } UXUX,XD.I.U.F. .Q o.1 UX,X=XUX",
"xX$Xd.d.s.d.iXiXrX>.} zXaXe.+ ] UX<X:X&XJ.Y.U.G.F.~  .! i o.B : ",
"xX$Xd.a.w.rXdXiXrXe } UX+.R I Q H.H.G.G.U.Y.U.G. . ...^ T G B x ",
"xXd.a.w.g.pXdXiXrXy } UXIX}.W &XH.H.G.D.R.!.U.H.g &X..^ ( C B z ",
"xXw.7.:.W.3XsXiXrXp } UXIX8Xf.R.L.L.L.C.[.!.U.L.g &X..^ / G B c ",
"pX9.,.` UXUXUXaXaXs } UXPX0XkXgX|.].A.{.}.x.f j ^.OX!.R F G B l ",
"uX5.#.' UXUXUXxXnXw UXUXPXMXzXgXj.'.[. X}.z.UXUXUXUXeX^ F G B c ",
"UX# ,.r X UXvXiXmXw UXUXPXBXzXgXj.'.{. X}.R.t UXUXUX9XR D C B c ",
"UXUXUX@ UX1XpXdXmXy _ UX@.ZXzXgXj.'. X X}.E.K.UXUXHXP.R D G B % ",
"UXUXUXUXUX=.aXpXmXa X UX} AXkXgXj.'.3X{.}.E.K.UXUXwX-XX.2 < = UX",
"UXUXUXUXUXUX0 pXmXa X UX) SXkXhXh.'.8X9XE.c.h UXUXUXUXUXUXUXUXUX",
"UXUXUXUXUXUXUX9 2Xr X   X CXkXhX`.x.Q.d ; UXUXUXUXUXUXUXUXUXUXUX",
"UXUXUXUXUXUXUXUXUX. UXUXUX>Xk u o UXUXUXUXUXUXUXUXUXUXUXUXUXUXUX",
"UXUXUXUXUXUXUXUXUXUXUXUXUXUXUXUXUXUXUXUXUXUXUXUXUXUXUXUXUXUXUXUX",
"UXUXUXUXUXUXUXUXUXUXUXUXUXUXUXUXUXUXUXUXUXUXUXUXUXUXUXUXUXUXUXUX"
};
